# xmcd CD database file
#
# Track frame offsets:
#	150
#	16690
#	29475
#	42479
#	57007
#	74635
#	91281
#	104500
#	118310
#	130512
#	142297
#	156651
#	171405
#	186099
#
# Disc length: 2663 seconds
#
# Revision: 0
# Processed by: cddbd v1.5.2PL0 Copyright (c) Steve Scherf et al.
# Submitted via: CDex 1.51
#
DISCID=d20a650e
DTITLE=Louis Armstrong - The Trumbet Player - The Blues Sessions (Remastered)
DYEAR=2001
DGENRE=Jazz
TTITLE0=Back o'town blues
TTITLE1=2:19 blues
TTITLE2=Blues
TTITLE3=Savoy blues
TTITLE4=Basin street blues
TTITLE5=Jack-Armstrong blues
TTITLE6=No variety blues
TTITLE7=Blues in the south
TTITLE8=Dipper mouth blues
TTITLE9=Blues from yesterday
TTITLE10=West End blues
TTITLE11=Blues again
TTITLE12=Wild man blues
TTITLE13=Melancholy blues
EXTD=YEAR: 2001
EXTT0=
EXTT1=
EXTT2=
EXTT3=
EXTT4=
EXTT5=
EXTT6=
EXTT7=
EXTT8=
EXTT9=
EXTT10=
EXTT11=
EXTT12=
EXTT13=
PLAYORDER=
